# Blender v2.93.1 OBJ File: 'course_part (1).blend'
# www.blender.org
mtllib course_part_tris_new4.mtl
o Cube
v 42.350903 -0.041730 8.541844
v -42.343719 -0.041730 8.541844
v 45.152267 21.282269 8.541844
v 42.350903 21.282269 8.541844
v -45.099422 25.577284 8.541844
v -42.343719 25.577284 8.541844
v 16.791035 -0.041730 8.541844
v -16.785587 -0.041730 8.541844
v -13.987535 -0.041730 8.541844
v 13.996814 -0.041730 8.541844
v 13.996814 0.271126 8.541844
v 16.791035 0.271126 8.541844
v -16.785587 0.271126 8.541844
v -13.987535 0.271126 8.541844
v 42.350903 -0.041730 -59.819145
v 16.791035 -0.041730 -59.819145
v -42.343719 -0.041730 -59.819145
v 42.350903 21.282269 -59.819145
v 45.152267 21.282269 -59.819145
v -45.099422 25.577284 -59.819145
v -42.343719 25.577284 -59.819145
v -13.987535 -0.041730 -59.819145
v 13.996814 -0.041730 -59.819145
v -16.785587 -0.041730 -59.819145
v 13.996814 0.271126 -59.819145
v 16.791035 0.271126 -59.819145
v -16.785587 0.271126 -59.819145
v -13.987535 0.271126 -59.819145
vt 0.000095 0.641490
vt 0.481533 0.622013
vt 0.481525 0.641691
vt 0.000152 0.019407
vt 0.481590 0.000202
vt 0.481582 0.019610
vt 0.000160 0.649892
vt 0.481590 0.650093
vt 0.000022 0.980070
vt 0.000084 0.829896
vt 0.481515 0.830098
vt 0.481452 0.980272
vt 0.000013 0.999799
vt 0.000076 0.199828
vt 0.481506 0.200031
vt 0.481430 0.380023
vt 0.000000 0.379820
vt 0.481551 0.416532
vt 0.481469 0.613611
vt 0.000039 0.613409
vt 0.000160 0.000000
vt 0.000121 0.416330
vt 0.481487 0.408130
vt 0.000065 0.388223
vt 0.481495 0.388425
vt 0.000056 0.407928
vt 0.481444 1.000000
vt 0.000103 0.621811
vn 0.0000 1.0000 0.0000
vn 1.0000 0.0000 0.0000
vn -1.0000 0.0000 0.0000
usemtl Material
s off
f 26/1/1 11/2/1 12/3/1
f 21/4/1 5/5/1 6/6/1
f 16/7/2 12/3/2 7/8/2
f 18/9/3 15/10/3 1/11/3
f 18/9/3 1/11/3 4/12/3
f 19/13/1 18/9/1 4/12/1
f 17/14/2 21/4/2 6/6/2
f 2/15/1 8/16/1 24/17/1
f 9/18/1 10/19/1 23/20/1
f 21/4/1 20/21/1 5/5/1
f 22/22/2 14/23/2 9/18/2
f 27/24/3 24/17/3 8/16/3
f 27/24/3 8/16/3 13/25/3
f 17/14/2 6/6/2 2/15/2
f 7/8/1 1/11/1 15/10/1
f 28/26/1 13/25/1 14/23/1
f 19/13/1 4/12/1 3/27/1
f 9/18/1 23/20/1 22/22/1
f 28/26/1 27/24/1 13/25/1
f 22/22/2 28/26/2 14/23/2
f 26/1/1 25/28/1 11/2/1
f 25/28/3 23/20/3 10/19/3
f 16/7/2 26/1/2 12/3/2
f 7/8/1 15/10/1 16/7/1
f 25/28/3 10/19/3 11/2/3
f 2/15/1 24/17/1 17/14/1
