# Blender v2.93.1 OBJ File: 'tall_box.blend'
# www.blender.org
mtllib tall_box3.mtl
o Cube
v 4.498659 3.001206 -0.000738
v 4.498659 -0.001207 -0.000738
v 4.498659 3.001206 1.000738
v 4.498659 -0.001207 1.000738
v 0.001341 3.001206 -0.000738
v 0.001341 -0.001207 -0.000738
v 0.001341 3.001206 1.000738
v 0.001341 -0.001207 1.000738
vt 0.381245 0.285886
vt 0.476604 0.714114
vt 0.381245 0.714114
vt 0.762490 0.285886
vt 0.762490 0.714114
vt 0.000000 0.000000
vt 0.095359 0.285886
vt 0.000000 0.285886
vt 0.095359 0.714114
vt 0.095359 1.000000
vt 0.000000 0.714114
vt 0.476604 0.285886
vt 0.095359 0.000000
vt 0.000000 1.000000
vn 0.0000 1.0000 0.0000
vn 0.0000 0.0000 1.0000
vn -1.0000 0.0000 0.0000
vn 0.0000 -1.0000 0.0000
vn 1.0000 0.0000 0.0000
vn 0.0000 0.0000 -1.0000
usemtl Material
s off
f 5/1/1 3/2/1 1/3/1
f 3/2/2 8/4/2 4/5/2
f 7/6/3 6/7/3 8/8/3
f 2/9/4 8/8/4 6/7/4
f 1/10/5 4/11/5 2/9/5
f 5/1/6 2/9/6 6/7/6
f 5/1/1 7/12/1 3/2/1
f 3/2/2 7/12/2 8/4/2
f 7/6/3 5/13/3 6/7/3
f 2/9/4 4/11/4 8/8/4
f 1/10/5 3/14/5 4/11/5
f 5/1/6 1/3/6 2/9/6
