# Blender v2.93.3 OBJ File: ''
# www.blender.org
mtllib tall_box_fence.mtl
o Cube_Cube.002
v 0.011001 0.002371 1.011127
v 0.011001 3.002371 1.011127
v 0.011001 0.002371 0.011128
v 0.011001 3.002371 0.011128
v 4.411001 0.002371 1.011127
v 4.411001 3.002371 1.011127
v 4.411001 0.002371 0.011128
v 4.411001 3.002371 0.011128
v 3.861001 0.002371 0.011128
v 0.561001 0.002371 0.011128
v 0.561001 3.002371 0.011128
v 3.861001 3.002371 0.011128
v 0.561001 0.002371 1.011127
v 3.861001 0.002371 1.011127
v 3.861001 3.002371 1.011127
v 0.561001 3.002371 1.011127
vt 0.400000 0.400000
vt 0.000000 0.000000
vt 0.400000 0.000000
vt 0.950000 0.800000
vt 0.900000 0.400000
vt 0.950000 0.400000
vt 0.800000 0.400000
vt 0.400000 0.000000
vt 0.800000 0.000000
vt 0.850000 0.800000
vt 0.800000 0.400000
vt 0.850000 0.400000
vt 1.000000 0.400000
vt 0.950000 0.800000
vt 0.850000 0.000000
vt 0.800000 0.400000
vt 0.800000 0.000000
vt 1.000000 0.000000
vt 0.950000 0.400000
vt 0.950000 0.000000
vt 0.900000 0.000000
vt 0.850000 0.400000
vt 0.850000 0.000000
vt 0.900000 0.800000
vt 0.850000 0.400000
vt 0.900000 0.400000
vt 0.950000 0.400000
vt 0.950000 0.000000
vt 0.000000 0.400000
vt 0.400000 0.800000
vt 0.000000 0.800000
vt 0.400000 0.800000
vt 0.800000 0.400000
vt 0.800000 0.800000
vt 0.000000 0.400000
vt 0.900000 0.800000
vt 0.400000 0.400000
vt 0.800000 0.800000
vt 1.000000 0.800000
vt 0.850000 0.400000
vt 1.000000 0.400000
vt 0.900000 0.400000
vt 0.850000 0.800000
vt 0.900000 0.400000
vt 0.400000 0.400000
vt 0.400000 0.400000
vn -1.0000 0.0000 0.0000
vn 0.0000 0.0000 -1.0000
vn 1.0000 0.0000 0.0000
vn 0.0000 0.0000 1.0000
vn 0.0000 -1.0000 0.0000
vn 0.0000 1.0000 0.0000
usemtl None
s off
f 2/1/1 3/2/1 1/3/1
f 12/4/2 7/5/2 9/6/2
f 8/7/3 5/8/3 7/9/3
f 16/10/4 1/11/4 13/12/4
f 7/13/5 14/14/5 9/6/5
f 4/15/6 16/16/6 11/17/6
f 12/18/6 6/19/6 8/20/6
f 10/21/5 1/22/5 3/23/5
f 6/24/4 14/25/4 5/26/4
f 4/27/2 10/21/2 3/28/2
f 13/29/3 11/30/3 16/31/3
f 12/32/1 14/33/1 15/34/1
f 2/1/1 4/35/1 3/2/1
f 12/4/2 8/36/2 7/5/2
f 8/7/3 6/37/3 5/8/3
f 16/10/4 2/38/4 1/11/4
f 7/13/5 5/39/5 14/14/5
f 4/15/6 2/40/6 16/16/6
f 12/18/6 15/41/6 6/19/6
f 10/21/5 13/42/5 1/22/5
f 6/24/4 15/43/4 14/25/4
f 4/27/2 11/44/2 10/21/2
f 13/29/3 10/45/3 11/30/3
f 12/32/1 9/46/1 14/33/1
